# xmcd
# 
# Track frame offsets:
#   150
#   15559
#   33009
#   46565
#   61772
#   72596
#   90684
#   107486
#   122265
#   138055
#   155532
#   167777
#   178549
#   193478
#   205167
# 
# Disc length: 2942 seconds
# 
# Revision: 1
# Processed by: cddbd v1.5.2PL0 Copyright (c) Steve Scherf et al.
# Submitted via: Synapstar 1.0 
# 
DISCID=bb0b7c0f
DTITLE=Shelton, Ricky Van - CB90050
DYEAR=1900
DGENRE=Country
TTITLE0=After The Lights Go Out
TTITLE1=I Am A Simple Man
TTITLE2=I Meant Every Word He Said
TTITLE3=Just As I Am
TTITLE4=Just Say Goodbye
TTITLE5=Keep It Between The Lines
TTITLE6=Life's Little Ups And Downs
TTITLE7=Statue Of A Fool
TTITLE8=Wild Man
TTITLE9=Backroads
TTITLE10=Don't We All Have The Right
TTITLE11=From A Jack To A King
TTITLE12=I'll Leave This World Loving You
TTITLE13=I've Cried My Last Tear For You
TTITLE14=Somebody Lied
EXTD=MediaType: Karaoke CD+G Producer: Chartbuster
EXTT0=
EXTT1=
EXTT2=
EXTT3=
EXTT4=
EXTT5=
EXTT6=
EXTT7=
EXTT8=
EXTT9=
EXTT10=
EXTT11=
EXTT12=
EXTT13=
EXTT14=
PLAYORDER=
